<svg xmlns="http://www.w3.org/2000/svg" width="17" height="16" fill="none"><g clip-path="url(#a)"><path fill="#000" d="M14.418 4.741c.01.142.01.284.01.426 0 4.335-3.277 9.33-9.267 9.33a9.16 9.16 0 0 1-5.002-1.472c.262.03.515.04.787.04a6.495 6.495 0 0 0 4.044-1.4A3.266 3.266 0 0 1 1.944 9.39c.202.03.404.05.615.05.293 0 .585-.04.857-.111A3.274 3.274 0 0 1 .805 6.112V6.07c.433.244.937.396 1.472.416a3.283 3.283 0 0 1-1.452-2.73c0-.61.161-1.168.444-1.656a9.238 9.238 0 0 0 6.715 3.432 3.727 3.727 0 0 1-.08-.751c0-1.807 1.452-3.28 3.257-3.28a3.24 3.24 0 0 1 2.38 1.036 6.386 6.386 0 0 0 2.067-.792 3.266 3.266 0 0 1-1.432 1.807 6.494 6.494 0 0 0 1.876-.507 7.029 7.029 0 0 1-1.634 1.695Z"/></g><defs><clipPath id="a"><path fill="#fff" d="M.16 0H16.05v16H.16z"/></clipPath></defs></svg>